<svg width="541" height="745" xmlns="http://www.w3.org/2000/svg" version="1.1">
 <g>
  <title>Layer 1</title>
  <path d="m232.6011,0.0881c1.625,0.875 1.625,0.875 2.625,2.875c1.37479,30.69006 -0.52211,63.90768 -7,94c6.21823,0.90166 6.21823,0.90166 11.80518,-1.33887c1.58377,-1.93647 2.92946,-3.91608 4.25732,-6.03613c1.01181,-1.47918 2.02744,-2.95575 3.04688,-4.42969c0.73186,-1.08233 0.73186,-1.08233 1.47851,-2.18652c3.05953,-4.35232 6.79169,-8.12674 10.41211,-12.00879c1.10951,-1.26617 2.21385,-2.5369 3.3125,-3.8125c1.22794,-1.39692 2.45728,-2.7926 3.6875,-4.1875c1.29164,-1.485 1.29164,-1.485 2.60938,-3c7.1021,-8.02872 14.73604,-14.69238 23.39062,-21c1.46953,-1.07314 1.46953,-1.07314 2.96875,-2.16797c8.01572,-5.71709 8.01572,-5.71709 11.03125,-6.83203c1.67497,0.28871 3.34379,0.61807 5,1c0.15547,7.49642 -0.22601,14.75342 -1.1875,22.1875c-0.1331,1.02956 -0.26619,2.05912 -0.40332,3.11987c-2.4911,18.35303 -6.48374,35.50934 -13.40918,52.69263c-0.33,0.99 -0.66,1.98 -1,3c1.5325,2.12592 3.06638,3.99933 4.8125,5.9375c1.02894,1.18073 2.05758,2.36172 3.08594,3.54297c0.52303,0.59345 1.04607,1.1869 1.58496,1.79834c14.23455,16.1548 25.9375,33.65411 36.24341,52.5188c16.65675,30.44848 38.08591,47.81522 71.27319,58.20239c4.68912,1.26385 9.40664,2.37693 14.16113,3.36621c4.45654,0.94364 8.12555,1.8267 11.83887,4.63379c1.50475,3.0095 1.42393,4.60859 1,8c-4.191,9.42176 -11.41799,17.94653 -21,22c-25.61862,5.99585 -52.89102,-0.87768 -78.28659,-5.19453c-8.06983,-1.37162 -16.1453,-2.6591 -24.24661,-3.83281c-4.23388,-0.61906 -8.44316,-1.31194 -12.65039,-2.0918c-3.59939,-0.6634 -7.20681,-1.27584 -10.81641,-1.88086c-0.81195,-0.1397 -1.6239,-0.2794 -2.46045,-0.42334c-13.63722,-2.26817 -27.11986,-2.86972 -40.91455,-2.88916c-1.18655,-0.00524 -1.18655,-0.00524 -2.39706,-0.01059c-42.85453,-0.1051 -82.02092,14.27283 -112.75333,44.83627c-0.48662,0.49065 -0.97324,0.9813 -1.47461,1.48682c-0.47631,0.47905 -0.95262,0.9581 -1.44336,1.45166c-12.95063,13.19625 -22.81259,28.31974 -31.55664,44.54834c-0.3619,0.66628 -0.72381,1.33257 -1.09668,2.01904c-10.49775,19.69458 -17.55903,42.53742 -20.57715,64.60205c-0.29961,2.18521 -0.64363,4.35833 -0.99805,6.53516c-2.34867,15.76047 -1.57391,31.95519 -1.32812,47.84375c0.01305,1.35255 0.01305,1.35255 0.02637,2.73242c0.12338,9.67516 1.62912,19.05529 3.22363,28.58008c0.19231,1.15025 0.38462,2.30049 0.58276,3.4856c3.11359,17.57991 7.98477,34.48624 13.85474,51.3269c0.62424,1.80686 1.24843,3.61375 1.87256,5.42065c8.35225,24.08272 17.0185,48.61147 28.43994,71.45435c1.79585,-6.05169 2.20225,-11.1221 1.79687,-17.39844c-0.05126,-0.90479 -0.10252,-1.80958 -0.15533,-2.74179c-0.71694,-11.53532 -2.06382,-23.0072 -3.39154,-34.48477c-0.26773,-2.36524 -0.53481,-4.73056 -0.80127,-7.09595c-1.2759,-11.28184 -2.59526,-22.55799 -3.95654,-33.82983c-0.2335,-1.94905 -0.4669,-3.8981 -0.7002,-5.84717c-0.42868,-3.57988 -0.86946,-7.15795 -1.31836,-10.73535c-6.04292,-49.28733 4.13588,-107.32725 34.8628,-147.61914c3.08119,-3.87619 6.34777,-7.57211 9.66357,-11.24756c0.93005,-1.05176 1.85974,-2.10384 2.78906,-3.15625c17.24637,-19.35853 37.63125,-34.17575 61.39844,-44.40625c1.20342,-0.52074 1.20342,-0.52074 2.43115,-1.052c3.90947,-1.6185 7.0642,-2.86134 11.38135,-2.3855c0.60135,1.34578 0.60135,1.34578 1.21484,2.71875c12.18873,26.91373 28.57756,50.27379 49.41016,71.21875c1.28753,1.29587 1.28753,1.29587 2.60107,2.61792c5.21254,5.15444 10.62957,9.894 16.34571,14.48193c2.75274,2.22495 5.34361,4.54587 7.92822,6.96265c3.5567,3.27418 7.17162,6.40642 10.9375,9.4375c4.53837,3.66039 8.82715,7.51228 13.08838,11.48511c3.1587,2.92639 6.40574,5.66276 9.78662,8.32739c10.1087,8.14271 19.43379,17.73631 27.6875,27.75c0.69094,0.8134 1.38188,1.6268 2.09375,2.46484c31.75846,37.90351 46.0115,81.27093 47.46875,130.34766c0.04335,1.38608 0.08697,2.77214 0.13086,4.1582c0.10483,3.34303 0.207,6.68611 0.30664,10.0293c4.56406,-10.50918 8.55666,-20.96945 11.47998,-32.05664c0.46689,-1.74482 0.97709,-3.47793 1.49268,-5.20898c10.64929,-40.21965 -5.76998,-86.96064 -25.62012,-121.5044c-3.31925,-5.47257 -7.17323,-10.3847 -11.35254,-15.22998c-0.76184,-0.88816 -1.52367,-1.77633 -2.30859,-2.69141c-6.34991,-7.20829 -12.9522,-14.5666 -20.69141,-20.30859c4.25749,-13.57531 23.79827,-23.24849 35.60938,-29.48047c35.2,-17.80917 73.24924,-18.09388 110.45312,-6.08203c5.68394,1.96799 10.86391,4.33135 15.9375,7.5625c-0.58502,3.32231 -1.57972,4.87557 -3.9375,7.25c-8.10525,8.94085 -14.9172,20.44053 -19.0625,31.75c-0.41766,1.12535 -0.83531,2.2507 -1.26562,3.41016c-7.7901,23.16821 -7.6871,49.7377 -9.79688,73.90234c-3.88356,44.45329 -8.92097,93.4574 -35.9375,130.6875c-0.4183,0.58233 -0.8366,1.16467 -1.26758,1.76465c-7.09668,9.83566 -14.68109,19.16951 -22.73242,28.23535c-0.46793,0.53109 -0.93586,1.06219 -1.41797,1.60938c-15.21156,17.2142 -32.68955,30.58424 -52.45605,42.13964c-1.91388,1.12618 -3.80645,2.28044 -5.69629,3.44629c-40.6441,24.53557 -85.89018,33.27237 -132.92969,33.17969c-0.90901,0.00045 -1.81802,0.00091 -2.75458,0.00137c-13.53838,-0.01956 -26.91261,-0.71681 -40.37042,-2.18887c-1.15834,-0.12402 -1.15834,-0.12402 -2.34009,-0.25055c-7.98486,-0.87869 -15.51778,-1.98922 -23.03491,-4.93695c1.43195,-3.91483 3.28465,-7.27296 5.49219,-10.80469c0.70697,-1.14027 1.4135,-2.28083 2.11963,-3.42163c0.36941,-0.59457 0.73883,-1.18914 1.11944,-1.80173c17.65639,-28.51226 32.37425,-56.71098 33.26874,-90.97195c0.02723,-0.97018 0.05446,-1.94036 0.08252,-2.93994c0.52948,-22.0684 -1.87495,-42.64821 -7.08252,-64.06006c-2.94573,14.26078 -5.59052,28.57123 -8.17084,42.90164c-0.48528,2.69103 -0.97359,5.38151 -1.4624,8.0719c-0.24647,1.36183 -0.49128,2.72396 -0.7345,4.08637c-7.21162,40.36519 -20.67806,77.15067 -49.63226,106.94009c-0.86625,0.99387 -0.86625,0.99387 -1.75,2.00781c-10.74352,11.97903 -27.48957,16.94125 -43.10156,17.90235c-1.55848,0.04447 -1.55848,0.04447 -3.14844,0.08984c-0.70608,0.02046 -1.41217,0.04093 -2.13965,0.06201c-9.14851,0.22675 -18.19953,0.10895 -27.29785,-0.93701c-0.6911,-0.07839 -1.3822,-0.15678 -2.09424,-0.23755c-3.76054,-0.48748 -7.02001,-1.30617 -10.46826,-2.88745c0.49307,-5.97676 1.75271,-10.56452 4.375,-15.9375c0.34942,-0.72727 0.69883,-1.45455 1.05884,-2.20386c6.75493,-13.64916 15.71067,-26.70386 25.62085,-38.25317c4.25581,-4.99271 7.45214,-10.07647 10.38281,-15.91797c0.51349,-1.02335 0.51349,-1.02335 1.03735,-2.06738c2.66998,-5.10333 2.66998,-5.10333 3.52515,-10.62012c-1.93048,-2.21806 -3.70639,-3.94652 -5.9375,-5.8125c-1.21317,-1.06665 -2.42541,-2.13436 -3.63672,-3.20312c-0.88824,-0.77054 -0.88824,-0.77054 -1.79443,-1.55665c-7.0161,-6.14039 -12.85689,-13.13419 -18.63135,-20.42773c-1.06928,-1.30904 -1.06928,-1.30904 -2.16016,-2.64453c-36.34383,-45.57005 -75.07925,-109.95081 -80.83984,-169.35547c-0.26299,-2.45703 -0.52602,-4.91406 -0.78906,-7.37109c-0.82483,-7.86898 -1.5348,-15.74583 -2.21094,-23.62891c-0.07493,-0.84417 -0.14985,-1.68835 -0.22705,-2.55811c-0.41446,-4.81105 -0.64178,-9.61622 -0.77295,-14.44189c-0.04882,-1.55002 -0.04882,-1.55002 -0.09863,-3.13135c-1.30089,-47.27204 7.37625,-93.97775 25.09863,-137.86865c0.42265,-1.04769 0.8453,-2.09537 1.28076,-3.1748c8.7127,-21.37994 18.74656,-41.70271 31.71924,-60.8252c0.42636,-0.63599 0.85271,-1.27198 1.29199,-1.92725c11.3713,-16.95052 23.78358,-33.1241 37.70801,-48.07275c0.68449,-0.73863 1.36898,-1.47727 2.07422,-2.23828c4.31869,-4.49432 8.91042,-8.47676 13.80078,-12.32422c0.60127,-0.47566 1.20253,-0.95133 1.82202,-1.44141c2.70306,-2.10501 5.3422,-4.01934 8.29517,-5.76953c9.32235,-5.6251 12.50645,-14.24167 16.86865,-23.79101c4.4971,-9.61489 10.31205,-18.31698 16.56103,-26.85352c2.69293,-3.69715 5.19806,-7.50624 7.70313,-11.33203c9.87873,-14.95797 22.2002,-27.76244 34.83667,-40.39697c1.60878,-1.61099 3.20934,-3.22988 4.80981,-4.84912c21.15598,-21.27089 21.15598,-21.27089 28.60352,-20.87891z" fill="#F1641C" id="svg_2"/>
 </g>

</svg>